<svg xmlns="http://www.w3.org/2000/svg" xmlns:xlink="http://www.w3.org/1999/xlink" aria-hidden="true" role="img" class="iconify iconify--libtv pointer-events-none " width="14" height="14" viewBox="0 0 20 20" style="color: var(--canvas-controls-icon);"><path d="M17.4834 0.0146484C18.8968 0.158126 19.9998 1.35151 20 2.80273V17.1973L19.9854 17.4834C19.8513 18.8026 18.8027 19.8514 17.4834 19.9854L17.1973 20H2.80273C1.35158 19.9999 0.158226 18.8967 0.0146484 17.4834L0 17.1973V2.80273C0.000159753 1.2549 1.2549 0.000160089 2.80273 0H17.1973L17.4834 0.0146484ZM2.80273 1.7998C2.24901 1.79996 1.79996 2.24901 1.7998 2.80273V17.1973C1.8001 17.7509 2.24909 18.2 2.80273 18.2002H6.87598V1.7998H2.80273ZM8.67676 18.2002H17.1973C17.7509 18.2 18.1999 17.7509 18.2002 17.1973V2.80273C18.2 2.24901 17.751 1.79996 17.1973 1.7998H8.67676V18.2002Z" fill="currentColor"></path></svg>