<svg xmlns="http://www.w3.org/2000/svg" xmlns:xlink="http://www.w3.org/1999/xlink" aria-hidden="true" role="img" class="iconify iconify--libtv pointer-events-none " width="16" height="16" viewBox="0 0 16 16"><path fill-rule="evenodd" clip-rule="evenodd" d="M11.5703 7.32031C11.7041 7.40647 11.8427 7.49125 11.9863 7.56543C12.4351 7.79714 13.0016 7.99984 13.5938 8C13.9834 7.99995 14.5104 7.94128 15.0498 7.83203V10.25C15.0498 11.2914 15.0517 12.1405 14.9619 12.8086C14.8695 13.4961 14.6692 14.0925 14.1934 14.5684C13.7175 15.0442 13.1211 15.2445 12.4336 15.3369C11.7655 15.4267 10.9164 15.4248 9.875 15.4248H6.125C5.08356 15.4248 4.23451 15.4267 3.56641 15.3369C2.87886 15.2445 2.28246 15.0442 1.80664 14.5684C1.33083 14.0925 1.13053 13.4961 1.03809 12.8086C0.948294 12.1405 0.950198 11.2914 0.950198 10.25V7.83594C1.49346 7.94052 2.02537 7.99896 2.40625 7.99902C2.99823 7.99894 3.56495 7.79594 4.01367 7.56445C4.15699 7.49047 4.29517 7.40621 4.42871 7.32031C4.85021 7.66646 5.42619 7.99885 6.16504 7.99902C6.77646 7.99893 7.3045 7.77311 7.70996 7.52246C7.81016 7.46049 7.90621 7.39372 7.99805 7.32617C8.09066 7.39438 8.18892 7.45994 8.29004 7.52246C8.69562 7.77313 9.22373 7.99883 9.83496 7.99902C10.5728 7.99886 11.1488 7.66619 11.5703 7.32031ZM8 9.5C6.89544 9.5 6 10.3954 6 11.5V13.5C6 14.0523 6.44772 14.5 7 14.5H9C9.55229 14.5 10 14.0523 10 13.5V11.5C10 10.3954 9.10457 9.5 8 9.5ZM9.83496 6.99902L9.69922 6.99316C9.68917 6.99225 9.67896 6.98944 9.66895 6.98828C9.72373 6.9944 9.77923 6.99901 9.83496 6.99902Z" fill="currentColor"></path>
  <path d="M8.00053 1.00014C11.0011 1.00014 12.6726 0.985326 13.3162 1.28875C13.9598 1.59225 14.3832 2.15654 14.9903 2.92752L15.2752 3.28903L15.2838 3.30002L15.4892 3.59462C15.6898 3.90524 15.8674 4.26195 15.9504 4.63421C16.065 5.14874 16.0048 5.74519 15.515 6.23304C15.0392 6.7069 14.3509 7 13.5936 7C12.8445 6.9999 11.9776 6.47094 11.5 6C11.0434 6.46652 10.567 6.999 9.83479 6.999C9.10776 6.99887 8.45603 6.46088 8 6C7.5439 6.4606 6.89205 6.999 6.16519 6.999C5.4321 6.99897 4.95655 6.46754 4.5 6C4.02234 6.47025 3.15497 6.999 2.40635 6.999C1.6491 6.99895 0.960752 6.70587 0.484999 6.23204C-0.00468519 5.74422 -0.0650214 5.1477 0.04955 4.63321C0.160132 4.1368 0.438679 3.66782 0.716163 3.29902L0.724765 3.28804L1.00969 2.92653C1.61692 2.1553 2.041 1.59122 2.68482 1.28775C3.32863 0.984389 5 1.00014 8.00053 1.00014Z" fill="currentColor"></path></svg>